<svg width="22" height="23" viewBox="0 0 22 23" fill="none" xmlns="http://www.w3.org/2000/svg">
<path d="M1.83252 4.65625H8.02644C8.3877 4.65621 8.74543 4.72734 9.07918 4.8656C9.41294 5.00385 9.71619 5.20651 9.9716 5.462L12.8325 8.32292M4.58252 12.9063H1.83252M7.79085 7.40625L9.62419 9.23958C9.74456 9.35996 9.84005 9.50287 9.9052 9.66015C9.97035 9.81744 10.0039 9.98601 10.0039 10.1563C10.0039 10.3265 9.97035 10.4951 9.9052 10.6523C9.84005 10.8096 9.74456 10.9525 9.62419 11.0729C9.50381 11.1933 9.3609 11.2888 9.20362 11.3539C9.04633 11.4191 8.87776 11.4526 8.70752 11.4526C8.53728 11.4526 8.36871 11.4191 8.21142 11.3539C8.05414 11.2888 7.91123 11.1933 7.79085 11.0729L6.41585 9.69792C5.62752 10.4863 4.3781 10.5752 3.48527 9.906L3.20752 9.69792" stroke="white" stroke-width="1.2" stroke-linecap="round" stroke-linejoin="round"/>
<path d="M4.58252 10.6175V14.7425C4.58252 16.4713 4.58252 17.3348 5.11969 17.872C5.65685 18.4091 6.52035 18.4091 8.24919 18.4091H16.4992C18.228 18.4091 19.0915 18.4091 19.6287 17.872C20.1659 17.3348 20.1659 16.4713 20.1659 14.7425V11.9925C20.1659 10.2636 20.1659 9.40014 19.6287 8.86297C19.0915 8.32581 18.228 8.32581 16.4992 8.32581H8.70752" stroke="white" stroke-width="1.2" stroke-linecap="round" stroke-linejoin="round"/>
<path d="M13.9784 13.3675C13.9784 13.7929 13.8093 14.201 13.5085 14.5018C13.2077 14.8026 12.7996 14.9716 12.3742 14.9716C11.9487 14.9716 11.5407 14.8026 11.2399 14.5018C10.939 14.201 10.77 13.7929 10.77 13.3675C10.77 12.942 10.939 12.534 11.2399 12.2332C11.5407 11.9323 11.9487 11.7633 12.3742 11.7633C12.7996 11.7633 13.2077 11.9323 13.5085 12.2332C13.8093 12.534 13.9784 12.942 13.9784 13.3675Z" stroke="white" stroke-width="1.2" stroke-linecap="round" stroke-linejoin="round"/>
</svg>
