<svg width="11" height="15" viewBox="0 0 11 15" fill="none" xmlns="http://www.w3.org/2000/svg">
<path d="M5.7498 14.8231C5.57966 14.8231 5.43382 14.7745 5.3123 14.6772C5.19077 14.58 5.09962 14.4524 5.03886 14.2944C4.80796 13.6139 4.51629 12.9759 4.16386 12.3804C3.82358 11.7849 3.34355 11.0861 2.72375 10.284C2.10396 9.48193 1.59962 8.71631 1.21073 7.98714C0.833998 7.25798 0.64563 6.3769 0.64563 5.34391C0.64563 3.92204 1.13782 2.71891 2.12219 1.73454C3.11872 0.73801 4.32792 0.239746 5.7498 0.239746C7.17167 0.239746 8.3748 0.73801 9.35917 1.73454C10.3557 2.71891 10.854 3.92204 10.854 5.34391C10.854 6.44982 10.6413 7.37343 10.2159 8.11475C9.80275 8.84391 9.32271 9.567 8.77584 10.284C8.11959 11.159 7.62132 11.8882 7.28105 12.4715C6.95292 13.0427 6.67948 13.6503 6.46073 14.2944C6.39997 14.4646 6.30275 14.5983 6.16907 14.6955C6.04754 14.7805 5.90778 14.8231 5.7498 14.8231ZM5.7498 7.16683C6.26021 7.16683 6.69164 6.99061 7.04407 6.63818C7.3965 6.28575 7.57271 5.85433 7.57271 5.34391C7.57271 4.8335 7.3965 4.40207 7.04407 4.04964C6.69164 3.69721 6.26021 3.521 5.7498 3.521C5.23938 3.521 4.80796 3.69721 4.45553 4.04964C4.10309 4.40207 3.92688 4.8335 3.92688 5.34391C3.92688 5.85433 4.10309 6.28575 4.45553 6.63818C4.80796 6.99061 5.23938 7.16683 5.7498 7.16683Z" fill="#FF0000"/>
</svg>
