<svg width="26" height="35" viewBox="0 0 26 35" fill="none" xmlns="http://www.w3.org/2000/svg">
<path d="M10.1177 5.74565L11.9472 2.26577L12.7827 0.676294L12.6481 0.419615C12.523 0.181064 12.259 0.0291748 11.9692 0.0291748H6.63921C6.38027 0.0291748 6.13979 0.150837 6.00145 0.351081C5.86393 0.551324 5.84849 0.802058 5.9603 1.01503L9.28284 7.33496L10.1177 5.74565Z" fill="#63CFA0"/>
<path d="M20.9992 0.345189C20.8577 0.14861 20.6115 0.0291748 20.3465 0.0291748H14.8928C14.5963 0.0291748 14.3259 0.178284 14.1981 0.412468L9.98635 8.09856C9.9833 8.10452 9.98255 8.11044 9.9795 8.11636C9.9728 8.12959 9.9697 8.1441 9.9637 8.15799C9.93664 8.22207 9.92088 8.28996 9.91709 8.3618C9.91629 8.37175 9.91029 8.3803 9.91029 8.39094V8.73922C10.9574 8.25889 12.146 7.98311 13.4076 7.98311C14.67 7.98311 15.8579 8.25893 16.9057 8.73992V8.54466L21.0413 0.997067C21.1558 0.787912 21.1399 0.541808 20.9992 0.345189Z" fill="#63CFA0"/>
<path d="M13.504 9.58337C6.59952 9.58337 1.00336 15.0555 1.00336 21.8071C1.00336 28.5573 6.59952 34.0294 13.504 34.0294C20.4071 34.0294 26.0034 28.5573 26.0034 21.8071C26.0035 15.0555 20.4071 9.58337 13.504 9.58337ZM20.9339 19.6728L17.5967 22.8557C17.4926 22.9559 17.444 23.0995 17.4691 23.2401L18.257 27.734C18.2846 27.896 18.2157 28.061 18.0793 28.1585C17.943 28.2561 17.761 28.2676 17.6128 28.1914L13.4852 26.0703C13.3562 26.004 13.2006 26.004 13.0714 26.0703L8.94376 28.1914C8.79555 28.2676 8.61361 28.2561 8.47727 28.1585C8.34093 28.061 8.27203 27.8959 8.2999 27.734L9.08769 23.2401C9.11245 23.0996 9.06402 22.9559 8.96003 22.8557L5.62286 19.6728C5.50123 19.5565 5.45865 19.3845 5.50991 19.2281C5.56291 19.0701 5.70217 18.9556 5.86794 18.9326L10.4841 18.277C10.6279 18.2569 10.7526 18.1681 10.8171 18.039L12.8811 13.9511C12.956 13.8033 13.11 13.7085 13.2786 13.7085C13.4473 13.7085 13.6011 13.8033 13.676 13.9511L15.74 18.039C15.8044 18.1681 15.9291 18.2569 16.0731 18.277L20.6892 18.9326C20.8549 18.9556 20.9944 19.0701 21.0472 19.2281C21.0982 19.3845 21.0554 19.5565 20.9339 19.6728Z" fill="#63CFA0"/>
</svg>
