<svg width="31" height="32" viewBox="0 0 31 32" fill="none" xmlns="http://www.w3.org/2000/svg">
<path fill-rule="evenodd" clip-rule="evenodd" d="M15.5 0.614607C17.5246 0.614597 19.5293 1.01335 21.3997 1.78811C23.2702 2.56286 24.9697 3.69844 26.4013 5.13001C27.8329 6.56158 28.9684 8.2611 29.7432 10.1315C30.518 12.002 30.9167 14.0067 30.9167 16.0312C30.9167 24.5457 24.0144 31.448 15.5 31.448C6.98568 31.448 0.083374 24.5457 0.083374 16.0312C0.083374 7.51691 6.98568 0.614607 15.5 0.614607ZM17.0417 17.573H13.9584C10.1417 17.573 6.86492 19.8845 5.45163 23.1842C7.68781 26.3199 11.3552 28.3646 15.5 28.3646C19.6449 28.3646 23.3122 26.3199 25.5485 23.184C24.1352 19.8845 20.8584 17.573 17.0417 17.573ZM15.5 5.23961C12.9457 5.23961 10.875 7.31031 10.875 9.86461C10.875 12.4189 12.9457 14.4896 15.5 14.4896C18.0543 14.4896 20.125 12.4189 20.125 9.86461C20.125 7.31031 18.0544 5.23961 15.5 5.23961Z" fill="#4A4A4A"/>
</svg>
