<svg width="24" height="20" viewBox="0 0 24 20" fill="none" xmlns="http://www.w3.org/2000/svg">
<path d="M15.7334 4.43121C15.7334 6.49307 14.0619 8.16454 12 8.16454C9.93819 8.16454 8.26672 6.49307 8.26672 4.43121C8.26672 2.36935 9.93819 0.697876 12 0.697876C14.0619 0.697876 15.7334 2.36935 15.7334 4.43121Z" fill="#171717"/>
<path d="M21.9556 6.9201C21.9556 8.29467 20.8413 9.40899 19.4667 9.40899C18.0921 9.40899 16.9778 8.29467 16.9778 6.9201C16.9778 5.54552 18.0921 4.43121 19.4667 4.43121C20.8413 4.43121 21.9556 5.54552 21.9556 6.9201Z" fill="#171717"/>
<path d="M16.9778 15.6312C16.9778 12.8821 14.7492 10.6534 12 10.6534C9.2509 10.6534 7.02227 12.8821 7.02227 15.6312V19.3645H16.9778V15.6312Z" fill="#171717"/>
<path d="M7.02227 6.9201C7.02227 8.29467 5.90796 9.40899 4.53338 9.40899C3.15881 9.40899 2.04449 8.29467 2.04449 6.9201C2.04449 5.54552 3.15881 4.43121 4.53338 4.43121C5.90796 4.43121 7.02227 5.54552 7.02227 6.9201Z" fill="#171717"/>
<path d="M19.4667 19.3645V15.6312C19.4667 14.3194 19.1284 13.0866 18.5343 12.0153C18.8323 11.9386 19.1448 11.8979 19.4667 11.8979C21.5286 11.8979 23.2 13.5693 23.2 15.6312V19.3645H19.4667Z" fill="#171717"/>
<path d="M5.4658 12.0153C4.87168 13.0866 4.53338 14.3194 4.53338 15.6312V19.3645H0.800049V15.6312C0.800049 13.5693 2.47152 11.8979 4.53338 11.8979C4.85533 11.8979 5.16776 11.9386 5.4658 12.0153Z" fill="#171717"/>
</svg>
