<svg width="17" height="16" viewBox="0 0 17 16" fill="none" xmlns="http://www.w3.org/2000/svg">
<path fill-rule="evenodd" clip-rule="evenodd" d="M2.67499 7.15625C2.67499 4.26087 5.02961 1.90625 7.92499 1.90625C10.8204 1.90625 13.175 4.26087 13.175 7.15625C13.175 10.0516 10.8204 12.4062 7.92499 12.4062C5.02961 12.4062 2.67499 10.0516 2.67499 7.15625ZM16.4186 14.4126L13.448 11.4411C14.3694 10.2564 14.925 8.7715 14.925 7.15625C14.925 3.29663 11.7846 0.15625 7.92499 0.15625C4.06536 0.15625 0.924988 3.29663 0.924988 7.15625C0.924988 11.0159 4.06536 14.1562 7.92499 14.1562C9.54024 14.1562 11.0251 13.6006 12.2099 12.6793L15.1814 15.6499C15.352 15.8205 15.576 15.9062 15.8 15.9062C16.024 15.9062 16.248 15.8205 16.4186 15.6499C16.7607 15.3078 16.7607 14.7547 16.4186 14.4126Z" fill="#4A4A4A"/>
</svg>
