<svg width="19" height="20" viewBox="0 0 19 20" fill="none" xmlns="http://www.w3.org/2000/svg">
<path fill-rule="evenodd" clip-rule="evenodd" d="M9.6668 19.1314C14.6926 19.1314 18.7668 15.0572 18.7668 10.0314C18.7668 5.00561 14.6926 0.931396 9.6668 0.931396C4.64101 0.931396 0.566803 5.00561 0.566803 10.0314C0.566803 15.0572 4.64101 19.1314 9.6668 19.1314ZM6.2543 3.2064C5.62608 3.2064 5.1168 3.71567 5.1168 4.3439C5.1168 4.97212 5.62608 5.4814 6.2543 5.4814C6.88253 5.4814 7.3918 5.99067 7.3918 6.6189V7.7564H6.2543C5.62608 7.7564 5.1168 8.26567 5.1168 8.8939C5.1168 9.52212 5.62608 10.0314 6.2543 10.0314H7.3918V13.4439C7.3918 15.3286 8.91963 16.8564 10.8043 16.8564C12.689 16.8564 14.2168 15.3286 14.2168 13.4439V12.3064C14.2168 11.6782 13.7075 11.1689 13.0793 11.1689C12.4511 11.1689 11.9418 11.6782 11.9418 12.3064V13.4439C11.9418 14.0721 11.4325 14.5814 10.8043 14.5814C10.1761 14.5814 9.6668 14.0721 9.6668 13.4439V10.0314H13.0793C13.7075 10.0314 14.2168 9.52212 14.2168 8.8939C14.2168 8.26567 13.7075 7.7564 13.0793 7.7564H9.6668V6.6189C9.6668 4.73422 8.13897 3.2064 6.2543 3.2064Z" fill="#171717"/>
</svg>
