<svg width="140" height="141" viewBox="0 0 140 141" fill="none" xmlns="http://www.w3.org/2000/svg">
<path d="M78.75 93.3672C78.75 95.6878 77.8281 97.9134 76.1872 99.5544C74.5462 101.195 72.3206 102.117 70 102.117C67.6794 102.117 65.4538 101.195 63.8128 99.5544C62.1719 97.9134 61.25 95.6878 61.25 93.3672C61.25 91.0465 62.1719 88.8209 63.8128 87.18C65.4538 85.5391 67.6794 84.6172 70 84.6172C72.3206 84.6172 74.5462 85.5391 76.1872 87.18C77.8281 88.8209 78.75 91.0465 78.75 93.3672Z" fill="#FDE8CD"/>
<path d="M83.6908 3.88281L102.241 29.8761L114.473 25.7053L125.638 58.3661H131.25V128.366H8.75V58.3661H11.725V58.3078L15.505 58.3428L83.6908 3.88281ZM54.8158 58.3661H113.312L107.263 40.6736L98.385 43.5145L54.8158 58.3661ZM45.7275 49.132L90.7083 33.8078L81.3517 20.6828L45.7275 49.132ZM32.0833 70.0328H20.4167V81.6995C23.5109 81.6995 26.4783 80.4703 28.6662 78.2824C30.8542 76.0945 32.0833 73.127 32.0833 70.0328ZM90.4167 93.3661C90.4167 90.685 89.8886 88.0301 88.8625 85.553C87.8365 83.076 86.3326 80.8252 84.4368 78.9294C82.5409 77.0335 80.2902 75.5296 77.8131 74.5036C75.3361 73.4776 72.6812 72.9495 70 72.9495C67.3188 72.9495 64.6639 73.4776 62.1869 74.5036C59.7098 75.5296 57.4591 77.0335 55.5632 78.9294C53.6674 80.8252 52.1635 83.076 51.1375 85.553C50.1114 88.0301 49.5833 90.685 49.5833 93.3661C49.5833 98.781 51.7344 103.974 55.5632 107.803C59.3921 111.632 64.5852 113.783 70 113.783C75.4148 113.783 80.6079 111.632 84.4368 107.803C88.2656 103.974 90.4167 98.781 90.4167 93.3661ZM119.583 116.699V105.033C116.489 105.033 113.522 106.262 111.334 108.45C109.146 110.638 107.917 113.605 107.917 116.699H119.583ZM107.917 70.0328C107.917 73.127 109.146 76.0945 111.334 78.2824C113.522 80.4703 116.489 81.6995 119.583 81.6995V70.0328H107.917ZM20.4167 116.699H32.0833C32.0833 113.605 30.8542 110.638 28.6662 108.45C26.4783 106.262 23.5109 105.033 20.4167 105.033V116.699Z" fill="#FDE8CD"/>
</svg>
