<svg width="4" height="20" viewBox="0 0 4 20" fill="none" xmlns="http://www.w3.org/2000/svg">
<path d="M1.99999 17.9937L1.99999 17.9824M1.99999 10.0312L1.99999 10.0198M1.99999 2.06872L1.99999 2.05735M1.99999 16.8562C2.62821 16.8562 3.13749 17.3655 3.13749 17.9937C3.13749 18.6219 2.62821 19.1312 1.99999 19.1312C1.37176 19.1312 0.862488 18.6219 0.862488 17.9937C0.862488 17.3655 1.37176 16.8562 1.99999 16.8562ZM1.99999 8.89373C2.62821 8.89373 3.13749 9.403 3.13749 10.0312C3.13749 10.6594 2.62821 11.1687 1.99999 11.1687C1.37176 11.1687 0.862487 10.6594 0.862487 10.0312C0.862487 9.403 1.37176 8.89373 1.99999 8.89373ZM1.99999 0.931225C2.62821 0.931225 3.13749 1.4405 3.13749 2.06872C3.13749 2.69695 2.62821 3.20622 1.99999 3.20622C1.37176 3.20622 0.862487 2.69695 0.862487 2.06872C0.862487 1.4405 1.37176 0.931225 1.99999 0.931225Z" stroke="#171717" stroke-width="1.67" stroke-linecap="round" stroke-linejoin="round"/>
</svg>
