<svg width="13" height="16" viewBox="0 0 13 16" fill="none" xmlns="http://www.w3.org/2000/svg">
<path d="M6.44242 10.3646C7.06126 10.3646 7.65475 10.1188 8.09233 9.68117C8.52992 9.24358 8.77575 8.65009 8.77575 8.03125C8.77575 7.41241 8.52992 6.81892 8.09233 6.38133C7.65475 5.94375 7.06126 5.69792 6.44242 5.69792C5.82358 5.69792 5.23009 5.94375 4.7925 6.38133C4.35492 6.81892 4.10909 7.41241 4.10909 8.03125C4.10909 8.65009 4.35492 9.24358 4.7925 9.68117C5.23009 10.1188 5.82358 10.3646 6.44242 10.3646ZM4.10909 15.0312V12.6979H8.77575V15.0312H4.10909ZM4.10909 3.36458V1.03125H8.77575V3.36458H4.10909Z" stroke="white" stroke-width="0.8" stroke-linecap="round" stroke-linejoin="round"/>
<path d="M1 8.03125H11.8889M2.55556 15.0312C2.143 15.0312 1.74733 14.8674 1.45561 14.5756C1.16389 14.2839 1 13.8883 1 13.4757L1 2.58681C1 2.17425 1.16389 1.77858 1.45561 1.48686C1.74733 1.19514 2.143 1.03125 2.55556 1.03125H10.3333C10.7459 1.03125 11.1416 1.19514 11.4333 1.48686C11.725 1.77858 11.8889 2.17425 11.8889 2.58681V13.4757C11.8889 13.8883 11.725 14.2839 11.4333 14.5756C11.1416 14.8674 10.7459 15.0312 10.3333 15.0312H2.55556Z" stroke="white" stroke-linecap="round" stroke-linejoin="round"/>
</svg>
